<svg xmlns="http://www.w3.org/2000/svg" xmlns:xlink="http://www.w3.org/1999/xlink" version="1.1" width="1000" height="1000" viewBox="0 0 1000 1000" xml:space="preserve">
<desc>Created with Fabric.js 3.5.0</desc>
<defs>
</defs>
<rect x="0" y="0" width="100%" height="100%" fill="#ffffff"/>
<g transform="matrix(2.2727 0 0 2.2727 499.9959 499.9945)" id="30839">
<g style="" vector-effect="non-scaling-stroke">
		<g transform="matrix(1 0 0 1 0.0295 0.3103)" id="rect4164">
<rect style="stroke: none; stroke-width: 10; stroke-dasharray: none; stroke-linecap: butt; stroke-dashoffset: 0; stroke-linejoin: round; stroke-miterlimit: 4; is-custom-font: none; font-file-url: none; fill: rgb(30,30,30); fill-rule: nonzero; opacity: 1;" x="-150.0295" y="-200.38905" rx="40" ry="40" width="300.059" height="400.7781"/>
</g>
		<g transform="matrix(1 0 0 1 -23.4285 -142.1032)" id="path4166">
<path style="stroke: none; stroke-width: 1; stroke-dasharray: none; stroke-linecap: butt; stroke-dashoffset: 0; stroke-linejoin: miter; stroke-miterlimit: 4; is-custom-font: none; font-file-url: none; fill: rgb(255,255,255); fill-opacity: 0.16; fill-rule: evenodd; opacity: 1;" transform=" translate(-126.5715, -710.259)" d="M -4.7687833 775.07096 C -9.6501835 741.99485 -16.84552 674.23676 -1.2788716 652.0641 C 18.998297 625.94378 233.50094 631.63117 263.31435 653.90999 C 276.21398 662.64856 70.349579 663.12124 47.099353 691.74479 C 24.390958 719.11242 0.65060847 818.18718 -4.7687833 775.07096 Z" stroke-linecap="round"/>
</g>
		<g transform="matrix(-1 0 0 -1 33.7517 152.8504)" id="path4221">
<path style="stroke: none; stroke-width: 1; stroke-dasharray: none; stroke-linecap: butt; stroke-dashoffset: 0; stroke-linejoin: miter; stroke-miterlimit: 4; is-custom-font: none; font-file-url: none; fill: rgb(0,0,0); fill-rule: evenodd; opacity: 1;" transform=" translate(-268.1863, -972.6744)" d="m 151.73588 1025.0177 c -3.32683 -9.3138 -10.24843 -68.45389 5.31821 -90.62655 c 20.27717 -26.12032 219.43558 -16.45796 231.55506 -9.93184 c 11.07433 5.31702 -178.60366 0.0589 -204.85126 34.86646 c -21.59349 30.0006 -26.50086 82.17843 -32.02201 65.69193 z" stroke-linecap="round"/>
</g>
</g>
</g>
<g transform="matrix(1.7313 0 0 1.8309 499.9945 507.1722)" id="677787">
<g style="" vector-effect="non-scaling-stroke">
		<g transform="matrix(1 0 0 1 2.5452 -49.257)" id="path8156">
<path style="stroke: none; stroke-width: 1; stroke-dasharray: none; stroke-linecap: butt; stroke-dashoffset: 0; stroke-linejoin: miter; stroke-miterlimit: 4; is-custom-font: none; font-file-url: none; fill: rgb(240,160,35); fill-rule: evenodd; opacity: 1;" transform=" translate(-153.6735, -152.7429)" d="m 233.73438 85.414062 c -62.01799 16.681888 -86.27161 21.909318 -166.158208 42.853518 c -5.42522 -0.0965 -16.534496 -0.92756 -21.67167 -9.50781 c -4.758196 -5.91895 -9.703104 0.68112 -9.437615 6.74218 c 0.365058 8.33409 0.598367 15.29187 4.480584 19.20117 c 21.664177 19.95035 29.078065 41.32218 32.222451 65.74024 c -0.33085 5.21114 -4.62276 10.00283 3.193359 9.64844 c 7.869133 -0.58359 84.263689 -6.62945 140.414059 -1.69336 c 4.64178 0.47659 5.45942 -3.68138 5.15039 -5.39063 c -2.64249 -14.6159 24.33847 -61.36206 33.375 -80.47461 c 1.86244 -3.9391 11.81804 -4.43434 13.9336 -4.93945 c -0.13937 0.0348 2.86207 -1.72444 1.0957 -3.91406 C 259.613 110.39214 237.46714 84.235655 233.73438 85.414062 Z m -21.27735 34.902348 c 9.08657 0.0687 13.4201 2.43096 9.83008 8.34961 c -11.11464 22.31009 -24.24336 65.93624 -28.21484 65.26367 c -61.3062 -0.41953 -87.92695 4.0617 -94.01563 2.04687 c -2.199134 -0.81536 -5.411834 -24.89934 -19.332875 -42.17976 c -2.189357 -2.71769 -1.286435 -4.69532 2.253906 -5.55664 c 20.628929 -4.6163 99.796559 -28.14827 129.479359 -27.92375 z" stroke-linecap="round"/>
</g>
		<g transform="matrix(0.7641 0 0 0.7641 -1.8618 0.1386)" id="path8160">
<path style="stroke: none; stroke-width: 1; stroke-dasharray: none; stroke-linecap: butt; stroke-dashoffset: 0; stroke-linejoin: miter; stroke-miterlimit: 4; is-custom-font: none; font-file-url: none; fill: rgb(240,160,35); fill-rule: evenodd; opacity: 1;" transform=" translate(-414.6635, -616.8476)" d="m 367.90999 395.10475 c 0.37549 4.16112 -0.17568 12.40731 6.29079 14.78577 c 5.6162 0.58559 19.75278 11.44606 16.95438 28.57096 c 0.0928 187.92712 3.32312 200.16425 0.3131 345.45795 c -5.62614 52.57681 6.73403 80.47048 10.82199 86.96513 c 2.93545 6.59024 6.12648 5.51697 7.60418 1.43859 c 12.97863 -35.82036 18.66091 -12.55418 14.70196 -102.90205 c -0.58086 -150.13908 -2.88642 -315.64694 19.06631 -327.81061 c 8.67123 -6.96222 20.05495 -28.68846 17.34799 -33.72755 c 3.10315 -4.97486 -50.62215 -54.03954 -55.12546 -49.49693 c -7.36818 8.03967 -36.64575 21.9603 -37.97524 36.71874 z" stroke-linecap="round"/>
</g>
</g>
</g>
</svg>